<svg xmlns="http://www.w3.org/2000/svg" xmlns:xlink="http://www.w3.org/1999/xlink" viewBox="0 0 106.39 90.28"><defs><style>.cls-1,.cls-4,.cls-5,.cls-6{fill:none;}.cls-2{clip-path:url(#clip-path);}.cls-3{fill:#dd5c3e;}.cls-4,.cls-5,.cls-6{stroke:#dd5c3e;}.cls-4,.cls-5{stroke-miterlimit:10;}.cls-4,.cls-6{stroke-width:2px;}.cls-5{stroke-width:0.5px;}.cls-6{stroke-linejoin:bevel;}</style><clipPath id="clip-path" transform="translate(0 -17.36)"><circle class="cls-1" cx="50.81" cy="40.61" r="40.61"/></clipPath></defs><title>資產 2</title><g id="圖層_2" data-name="圖層 2"><g id="圖層_1-2" data-name="圖層 1"><g class="cls-2"><polyline class="cls-3" points="65.84 49.45 65.84 89.28 63.23 50.18"/><path class="cls-4" d="M29.26,25.88,29.18,21s9.75-3.5,11.63-2.5l1.88,1,9-.44L56.56,22v1.89l7.84.76,1.23,2,6.44,1.18a3.43,3.43,0,0,1,2.28,3.51l-2,25.18s-1.75,6.75-6,8.75l-.37,41.35H34.18L33.68,65l-3.25-4.25-3.87-9.87L23.93,39.66l-2.12-7.5Z" transform="translate(0 -17.36)"/><path class="cls-3" d="M62.12,54.8a29.49,29.49,0,0,0-2-4.64,12.83,12.83,0,0,0-1.36-2,2.59,2.59,0,0,0-1.51-1l.27,0L44.05,48.6v-5L57.5,45l.25,0h0a4.43,4.43,0,0,1,2.31,2.19,14.17,14.17,0,0,1,1,2.49A30,30,0,0,1,62.12,54.8Z" transform="translate(0 -17.36)"/><path class="cls-4" d="M43,19.79v23s1.07,2.33,5.43,2.33,5.15-2.33,5.15-2.33c1.25-1.19,3-18.84,3-18.84" transform="translate(0 -17.36)"/><path class="cls-4" d="M64.73,25.45s2.42,11-3.5,18.67a5.89,5.89,0,0,1-3.73,1l-3.94-2.33" transform="translate(0 -17.36)"/><path class="cls-4" d="M61.23,44.12l.9,1a6.7,6.7,0,0,0,5.85,3c5-3.4,5.82-9.86,5.82-9.86" transform="translate(0 -17.36)"/><path class="cls-4" d="M45.42,48.07,43,42.76,35.39,38.6l.85-4.27a7.74,7.74,0,0,0,2.53-8.38l-1-2.28-2.33-1.42-10,6.6" transform="translate(0 -17.36)"/><polygon class="cls-3" points="36.5 17.94 33.48 17.79 33.45 17.69 35.97 16.01 36.5 17.94"/><polygon class="cls-3" points="26.22 32.09 30.96 39.93 34.85 47.47 33.72 49.51 31.7 45.08 29.4 40.8 26.22 32.09"/><polygon class="cls-3" points="46.67 17.36 49.77 17.41 51.67 17.41 48.08 18.31 46.67 17.36"/><polygon class="cls-3" points="46.67 19.48 49.77 19.53 51.67 19.53 49.77 20.01 46.67 19.48"/><polygon class="cls-3" points="60.73 10.18 63.83 10.23 65.73 10.23 62.14 11.14 60.73 10.18"/><polygon class="cls-3" points="60.73 12.31 63.83 12.36 65.73 12.36 63.83 12.84 60.73 12.31"/><polygon class="cls-3" points="62.43 23.16 64.36 23.21 65.53 23.21 63.31 24.12 62.43 23.16"/><polygon class="cls-3" points="63.67 27.39 65.59 27.44 66.76 27.44 65.59 27.92 63.67 27.39"/><path class="cls-3" d="M38.36,40.64l3.11,4.46v4.78l5-2.09s-2.7-4.78-2.91-4.65A54.59,54.59,0,0,1,38.36,40.64Z" transform="translate(0 -17.36)"/><polygon class="cls-3" points="34.85 47.47 44.05 48.49 35.39 49.51 33.74 50.18 34.85 47.47"/><polygon class="cls-3" points="65.32 47.3 58.17 51.33 65.22 50.07 66.38 48.91 65.32 47.3"/><polygon class="cls-3" points="46.43 30.43 57.5 27.74 48.41 27.74 44.96 27.9 46.43 30.43"/><polygon class="cls-3" points="71.34 29.09 72.58 35.79 71.02 42.55 73.79 32.52 73.23 27.74 70.86 27.9 71.34 29.09"/><polygon class="cls-3" points="42.98 4.89 45.53 2.43 49.77 2.43 51.23 2.43 51.67 1.74 44.05 2.43 42.98 4.89"/><polyline class="cls-5" points="29.26 8.53 33.74 9.12 37.72 6.3"/><polyline class="cls-3" points="29.26 38.37 27.87 32.52 27.15 25.82 26.48 30.83 26.48 32.52"/><polyline class="cls-3" points="35.39 21.24 31.5 21.44 35.39 22.32"/><polygon class="cls-3" points="62.91 17.82 61.96 26.81 61.96 21.29 62.91 17.82"/><polygon class="cls-3" points="32.07 38.92 34.82 47.52 32.59 42.48 32.07 38.92"/><polygon class="cls-3" points="72.39 24.34 66.45 31.15 69.61 26.63 72.39 24.34"/><polygon class="cls-3" points="38.36 17.59 37.4 22.43 37.4 19.46 38.36 17.59"/><polygon class="cls-3" points="44.7 38.96 43.77 45.44 42.9 42.2 44.7 38.96"/><polygon class="cls-3" points="47.22 35.27 44.67 46.25 46.68 42.7 47.22 35.27"/><polygon class="cls-3" points="44.24 10.96 43.86 24.52 44.66 18.01 44.24 10.96"/><path class="cls-4" d="M57.5,45.1H44.05" transform="translate(0 -17.36)"/></g><polyline class="cls-4" points="23.87 22.35 1.08 16.32 1.74 9.35 25.35 11.49 22.52 17.3 24.45 24.49"/><polygon class="cls-3" points="1.49 12.01 4.06 10.13 13.66 10.75 3.02 9.35 1.49 12.01"/><polygon class="cls-3" points="22.59 19.6 2.06 16.15 22.59 21.24 22.59 19.6"/><polyline class="cls-4" points="74.01 17.74 79.37 19.51 78.66 25.12 73.31 25.74"/><path class="cls-6" d="M84.43,36.87l8.41-2.16S98.52,41,106.1,42.62c0,0-9.36,2.82-14.19,5.45l-9.68-5.6.71-5.6Z" transform="translate(0 -17.36)"/><polygon class="cls-4" points="82.23 25.12 79.02 25.12 79.73 19.51 82.93 19.51 82.23 25.12"/><polygon class="cls-3" points="92.24 24.01 89.56 23.82 90.24 22.12 92.84 23.27 92.24 24.01"/><polyline class="cls-3" points="103.91 24.33 94.36 23.64 103.91 26.12"/><polygon class="cls-3" points="74.84 19.75 76.8 21.78 76.34 19.48 74.84 18.31 74.36 20.01 74.84 19.75"/></g></g></svg>