<?xml version="1.0" encoding="UTF-8"?>
<svg width="87px" height="129px" viewBox="0 0 87 129" version="1.1" xmlns="http://www.w3.org/2000/svg" xmlns:xlink="http://www.w3.org/1999/xlink">
    <!-- Generator: Sketch 43.1 (39012) - http://www.bohemiancoding.com/sketch -->
    <title>logo-1</title>
    <desc>Created with Sketch.</desc>
    <defs></defs>
    <g id="Page-1" stroke="none" stroke-width="1" fill="none" fill-rule="evenodd">
        <g id="logo-1" fill-rule="nonzero" fill="#DD5C3E">
            <rect id="Rectangle-path" x="2.28" y="8" width="10" height="15.75"></rect>
            <polygon id="Shape" points="22.23 35.71 25.84 40.44 33.79 34.36 29.03 28.15 29.03 0 19.03 0 19.03 25.95 0 37.57 5.21 46.1"></polygon>
            <polygon id="Shape" points="42.41 47.45 58.02 35.13 74.32 48.05 86.87 39.41 81.19 31.18 74.74 35.62 63.03 26.33 63.03 23.75 82.56 12.31 77.5 3.69 63.03 12.16 63.03 0 53.03 0 53.03 26.33 36.22 39.6"></polygon>
            <rect id="Rectangle-path" x="35.78" y="8" width="10" height="15.75"></rect>
            <polygon id="Shape" points="2.28 65.5 12.28 65.5 12.28 60 75.03 60 75.03 65.5 85.03 65.5 85.03 50 2.28 50"></polygon>
            <path d="M44.78,65.51 L34.78,65.51 C34.6887402,68.4359361 34.4283052,71.3541435 34,74.25 L2.61,74.25 L2.61,84.25 L32.1,84.25 C28.84,97.09 21.61,112.8 5.59,118.54 L9,128 C23.8,122.69 34.7,110.08 40.5,91.55 C41.28,89.06 41.92,86.62 42.44,84.3 L71.31,84.3 C70.31,90.76 67.47,102.96 59.6,118.3 L55.29,118.3 L55.29,128.3 L65.61,128.3 L67,125.62 C81.44,98.85 81.86,80.1 81.87,79.32 L81.94,74.25 L44.14,74.25 C44.5135009,71.3506129 44.7271573,68.4328678 44.78,65.51 Z" id="Shape"></path>
        </g>
    </g>
</svg>