<svg width="87px" height="130px" viewBox="0 0 87 130" version="1.1" xmlns="http://www.w3.org/2000/svg" xmlns:xlink="http://www.w3.org/1999/xlink">
    <g id="Page-1" stroke="none" stroke-width="1" fill="none" fill-rule="evenodd">
        <g id="logo-5" fill-rule="nonzero" fill="#DD5C3E">
            <polygon id="Shape" points="28.35 20.82 15.83 0.39 7.3 5.61 15.96 19.75 0.53 19.75 0.53 29.75 28.35 29.75"></polygon>
            <polygon id="Shape" points="53.52 54.81 38.52 54.81 38.52 64.81 78.53 64.81 78.53 54.81 63.52 54.81 63.52 34.75 80.53 34.75 80.53 24.75 63.52 24.75 63.52 1.84 53.52 1.84 53.52 24.75 36.52 24.75 36.52 34.75 53.52 34.75"></polygon>
            <path d="M52.28,72.65 L43,72.65 L26.75,88.08 L26.75,71.8 L1,71.8 L1,129.68 L26.72,129.68 L26.72,90.86 L32.23,96.65 L42.23,87.11 L42.23,128.68 L77.48,128.68 L77.48,118.68 L52.28,118.68 L52.28,72.65 Z M16.75,119.65 L11,119.65 L11,81.8 L16.72,81.8 L16.75,119.65 Z" id="Shape"></path>
            <path d="M64.09,91.19 C69.24,85.89 69.21,74.82 69.15,72.66 L59.15,72.93 C59.29,78.67 57.86,83.56 56.85,84.28 C56.914031,84.2415735 56.9857194,84.2176774 57.06,84.21 L57.06,94.21 C59.7200887,94.2185906 62.2649955,93.1253305 64.09,91.19 L64.09,91.19 Z" id="Shape"></path>
            <path d="M58.12,110 L63.12,118.66 C86.23,105.34 86.12,74.04 86.12,72.72 L76.12,72.84 C76.1,73.12 76.2,99.59 58.12,110 Z" id="Shape"></path>
            <polygon id="Shape" points="27.75 36.84 0.38 36.84 0.38 46.84 17.75 46.84 17.75 53.81 0.38 53.81 0.38 63.81 27.75 63.81"></polygon>
        </g>
    </g>
</svg>